<svg width="1280" height="315" viewBox="0 0 1280 315" fill="none" xmlns="http://www.w3.org/2000/svg">
<path fill-rule="evenodd" clip-rule="evenodd" d="M0 187.929H30.5444C61.0887 187.929 122.177 187.929 183.266 200.084C243.4 213.174 304.489 238.418 365.578 244.028C426.667 250.572 487.755 238.418 548.844 244.028C609.933 250.572 670.067 275.817 731.156 294.516C792.245 313.216 853.333 325.37 914.422 301.061C975.511 275.817 1036.6 213.174 1096.73 206.629C1157.82 200.084 1218.91 250.572 1249.46 275.817L1280 301.061V0H1249.46C1218.91 0 1157.82 0 1096.73 0C1036.6 0 975.511 0 914.422 0C853.333 0 792.245 0 731.156 0C670.067 0 609.933 0 548.844 0C487.755 0 426.667 0 365.578 0C304.489 0 243.4 0 183.266 0C122.177 0 61.0887 0 30.5444 0H0V187.929Z" fill="#0099FF"/>
</svg>
