<svg width="1280" height="209" viewBox="0 0 1280 209" fill="none" xmlns="http://www.w3.org/2000/svg">
<path fill-rule="evenodd" clip-rule="evenodd" d="M0 23.5578L24 19.3295C47 15.7052 95 7.8526 142 35.0347C190 62.2168 237 123.829 284 158.864C332 193.295 379 201.147 427 186.046C474 170.341 521 131.682 569 112.353C616 93.0231 664 93.0231 711 81.5462C759 70.0694 806 46.5116 853 42.8873C901 38.659 948 54.3642 996 57.9884C1043 62.2168 1090 54.3642 1138 42.8873C1185 31.4104 1233 15.7052 1256 7.8526L1280 0V209H1256C1233 209 1185 209 1138 209C1090 209 1043 209 996 209C948 209 901 209 853 209C806 209 759 209 711 209C664 209 616 209 569 209C521 209 474 209 427 209C379 209 332 209 284 209C237 209 190 209 142 209C95 209 47 209 24 209H0V23.5578Z" fill="#1C3647"/>
</svg>
