<svg width="1280" height="306" viewBox="0 0 1280 306" fill="none" xmlns="http://www.w3.org/2000/svg">
<path fill-rule="evenodd" clip-rule="evenodd" d="M0 34.4753L24 28.2874C47 22.9835 95 11.4918 142 51.2709C190 91.0501 237 181.216 284 232.487C332 282.874 379 294.366 427 272.266C474 249.283 521 192.708 569 164.421C616 136.133 664 136.133 711 119.338C759 102.542 806 68.0666 853 62.7627C901 56.5748 948 79.5584 996 84.8622C1043 91.0501 1090 79.5584 1138 62.7627C1185 45.967 1233 22.9835 1256 11.4918L1280 0V305.858H1256C1233 305.858 1185 305.858 1138 305.858C1090 305.858 1043 305.858 996 305.858C948 305.858 901 305.858 853 305.858C806 305.858 759 305.858 711 305.858C664 305.858 616 305.858 569 305.858C521 305.858 474 305.858 427 305.858C379 305.858 332 305.858 284 305.858C237 305.858 190 305.858 142 305.858C95 305.858 47 305.858 24 305.858H0V34.4753Z" fill="#1C3647"/>
</svg>
