<svg width="1280" height="308" viewBox="0 0 1280 308" fill="none" xmlns="http://www.w3.org/2000/svg">
<path fill-rule="evenodd" clip-rule="evenodd" d="M0 115.5L42.6667 121.917C85.3333 128.333 170.667 141.167 256 109.083C341.333 77 426.667 7.62939e-06 512 7.62939e-06C597.333 7.62939e-06 682.667 77 768 102.667C853.333 128.333 938.667 102.667 1024 83.4167C1109.33 64.1667 1194.67 51.3333 1237.33 44.9167L1280 38.5V308H1237.33C1194.67 308 1109.33 308 1024 308C938.667 308 853.333 308 768 308C682.667 308 597.333 308 512 308C426.667 308 341.333 308 256 308C170.667 308 85.3333 308 42.6667 308H0V115.5Z" fill="#1E272D"/>
</svg>
