<svg width="1280" height="175" viewBox="0 0 1280 175" fill="none" xmlns="http://www.w3.org/2000/svg">
<path fill-rule="evenodd" clip-rule="evenodd" d="M1280 65.625L1237.33 69.2708C1194.67 72.9167 1109.33 80.2083 1024 61.9792C938.667 43.75 853.333 -2.38419e-07 768 -2.38419e-07C682.667 -2.38419e-07 597.333 43.75 512 58.3333C426.667 72.9167 341.333 58.3333 256 47.3958C170.667 36.4583 85.3334 29.1667 42.6668 25.5208L4.37498e-05 21.875V175H42.6668C85.3334 175 170.667 175 256 175C341.333 175 426.667 175 512 175C597.333 175 682.667 175 768 175C853.333 175 938.667 175 1024 175C1109.33 175 1194.67 175 1237.33 175H1280V65.625Z" fill="#121516"/>
</svg>
