<svg width="1280" height="315" viewBox="0 0 1280 315" fill="none" xmlns="http://www.w3.org/2000/svg">
<path fill-rule="evenodd" clip-rule="evenodd" d="M0 188.285H30.5444C61.0887 188.285 122.177 188.285 183.266 200.439C243.4 213.529 304.489 238.773 365.578 244.383C426.667 250.928 487.755 238.773 548.844 244.383C609.933 250.928 670.067 276.172 731.156 294.872C792.245 313.571 853.333 325.726 914.422 301.416C975.511 276.172 1036.6 213.529 1096.73 206.984C1157.82 200.439 1218.91 250.928 1249.46 276.172L1280 301.416V0.355469H1249.46C1218.91 0.355469 1157.82 0.355469 1096.73 0.355469C1036.6 0.355469 975.511 0.355469 914.422 0.355469C853.333 0.355469 792.245 0.355469 731.156 0.355469C670.067 0.355469 609.933 0.355469 548.844 0.355469C487.755 0.355469 426.667 0.355469 365.578 0.355469C304.489 0.355469 243.4 0.355469 183.266 0.355469C122.177 0.355469 61.0887 0.355469 30.5444 0.355469H0V188.285Z" fill="#0099FF"/>
</svg>
